<svg width="413" height="125" viewBox="0 0 413 125" fill="none" xmlns="http://www.w3.org/2000/svg">
<path d="M39.3698 104.286H72.0542V125H24.8847C16.7136 117.619 10.5234 108.274 6.31403 96.9643C2.10468 85.6548 0 74.0476 0 62.1429C0 50.119 2.35228 38.5714 7.05685 27.5C11.7614 16.4286 18.7564 7.2619 28.0417 0H72.0542V21.4286H39.3698C36.0271 25.119 33.1177 31.0714 30.6416 39.2857C28.2893 47.5 27.1132 55.3571 27.1132 62.8571C27.1132 70.3571 28.2893 78.2143 30.6416 86.4286C33.1177 94.6429 36.0271 100.595 39.3698 104.286Z" fill="white"/>
<path d="M139.39 125H98.9062C86.5258 113.929 80.3355 98.8095 80.3355 79.6429C80.3355 70 81.6974 61.6071 84.4211 54.4643C87.2686 47.3214 91.7255 40.4167 97.792 33.75H141.247C147.685 40.8929 152.08 47.8571 154.432 54.6429C156.785 61.3095 157.961 69.6429 157.961 79.6429C157.961 98.8095 151.771 113.929 139.39 125ZM112.091 106.25H126.205C130.662 97.9167 132.891 88.4524 132.891 77.8571C132.891 67.2619 130.6 58.8095 126.019 52.5H112.091C107.634 58.5714 105.406 67.2024 105.406 78.3929C105.406 89.4643 107.634 98.75 112.091 106.25Z" fill="white"/>
<path d="M243.123 125H224.367L221.024 118.571C218.301 120.952 215.701 122.619 213.225 123.571C210.872 124.524 207.282 125 202.454 125H186.297C180.85 120 176.517 113.452 173.298 105.357C170.203 97.2619 168.655 88.2143 168.655 78.2143C168.655 68.0952 170.203 59.5238 173.298 52.5C176.517 45.4762 181.035 39.2262 186.854 33.75H202.825C209.387 33.75 214.586 35.4167 218.424 38.75V0H243.123V125ZM218.424 52.5H200.597C196.016 60 193.725 69.2262 193.725 80.1786C193.725 91.0119 195.954 99.7024 200.411 106.25H218.424V52.5Z" fill="white"/>
<path d="M301.929 52.5H288.001C286.143 54.6429 284.596 57.6191 283.358 61.4286C282.244 65.2381 281.687 68.9286 281.687 72.5H308.243C308.49 68.9286 307.995 65.2381 306.757 61.4286C305.519 57.5 303.909 54.5238 301.929 52.5ZM327.185 106.25V125H280.015C271.349 119.405 265.221 112.5 261.63 104.286C258.164 95.9524 256.43 87.5595 256.43 79.1071C256.43 59.5833 264.106 44.4643 279.458 33.75H309.543C317.837 39.5833 323.471 45.7738 326.442 52.3214C329.413 58.869 330.899 65.4762 330.899 72.1429C330.899 78.8095 330.342 84.5238 329.227 89.2857H282.986C283.358 92.0238 284.41 95.1786 286.143 98.75C288.001 102.202 289.981 104.702 292.086 106.25H327.185Z" fill="white"/>
<path d="M380.316 104.286H413V125H365.831C357.659 117.619 351.469 108.274 347.26 96.9643C343.05 85.6548 340.946 74.0476 340.946 62.1429C340.946 50.119 343.298 38.5714 348.003 27.5C352.707 16.4286 359.702 7.2619 368.988 0H413V21.4286H380.316C376.973 25.119 374.064 31.0714 371.587 39.2857C369.235 47.5 368.059 55.3571 368.059 62.8571C368.059 70.3571 369.235 78.2143 371.587 86.4286C374.064 94.6429 376.973 100.595 380.316 104.286Z" fill="#FFC700"/>
</svg>
