<svg width="27" height="27" viewBox="0 0 27 27" fill="none" xmlns="http://www.w3.org/2000/svg">
<path d="M12.6605 8.47433L16.9777 12.5859C17.2309 12.827 17.375 13.1585 17.375 13.5C17.375 13.8415 17.2309 14.173 16.9777 14.4141L12.6605 18.5257C12.4355 18.74 12.1332 18.8571 11.8168 18.8571C11.1594 18.8571 10.625 18.3482 10.625 17.7221V15.6429H6.125C5.50273 15.6429 5 15.1641 5 14.5714V12.4286C5 11.8359 5.50273 11.3571 6.125 11.3571H10.625V9.2779C10.625 8.65179 11.1594 8.14286 11.8168 8.14286C12.1332 8.14286 12.4355 8.26339 12.6605 8.47433ZM17.375 18.8571H19.625C20.2473 18.8571 20.75 18.3783 20.75 17.7857V9.21429C20.75 8.62165 20.2473 8.14286 19.625 8.14286H17.375C16.7527 8.14286 16.25 7.66406 16.25 7.07143C16.25 6.47879 16.7527 6 17.375 6H19.625C21.4883 6 23 7.43973 23 9.21429V17.7857C23 19.5603 21.4883 21 19.625 21H17.375C16.7527 21 16.25 20.5212 16.25 19.9286C16.25 19.3359 16.7527 18.8571 17.375 18.8571Z" fill="#A5A5A5"/>
</svg>
